<svg xmlns="http://www.w3.org/2000/svg" xmlns:xlink="http://www.w3.org/1999/xlink" width="500" zoomAndPan="magnify" viewBox="0 0 375 374.999991" height="500" preserveAspectRatio="xMidYMid meet" version="1.0"><defs><clipPath id="b9c51369d0"><path d="M 69 123 L 180 123 L 180 315.546875 L 69 315.546875 Z M 69 123 " clip-rule="nonzero"/></clipPath><clipPath id="ba22579f7a"><path d="M 107 77.796875 L 153 77.796875 L 153 123 L 107 123 Z M 107 77.796875 " clip-rule="nonzero"/></clipPath></defs><rect x="-37.5" width="450" fill="#ffffff" y="-37.499999" height="449.999989" fill-opacity="1"/><rect x="-37.5" width="450" fill="#032759" y="-37.499999" height="449.999989" fill-opacity="1"/><path fill="#e8f5ff" d="M 175.328125 140.695312 C 187.34375 119.660156 209.972656 105.472656 235.929688 105.472656 C 274.457031 105.472656 305.691406 136.707031 305.691406 175.234375 C 305.691406 213.761719 274.457031 244.996094 235.929688 244.996094 C 215.421875 244.996094 196.984375 236.144531 184.222656 222.058594 C 182.484375 226.285156 178.765625 229.460938 174.246094 230.460938 C 189.40625 247.382812 211.417969 258.039062 235.929688 258.039062 C 281.660156 258.039062 318.734375 220.964844 318.734375 175.234375 C 318.734375 129.503906 281.660156 92.429688 235.929688 92.429688 C 206.988281 92.429688 181.527344 107.289062 166.726562 129.78125 C 169.613281 132.308594 172.621094 135.8125 175.328125 140.695312 Z M 175.328125 140.695312 " fill-opacity="1" fill-rule="nonzero"/><g clip-path="url(#b9c51369d0)"><path fill="#e8f5ff" d="M 100.488281 225.453125 L 100.488281 204.695312 L 102.496094 205.542969 L 102.496094 303.457031 C 102.496094 310.316406 108.054688 315.867188 114.90625 315.867188 C 120.210938 315.867188 124.722656 312.539062 126.5 307.855469 C 127.019531 306.488281 127.316406 305.007812 127.316406 303.457031 L 127.316406 212.847656 L 131.96875 212.847656 L 131.96875 303.457031 C 131.96875 310.3125 137.527344 315.867188 144.382812 315.867188 C 151.234375 315.867188 156.789062 310.3125 156.789062 303.457031 L 156.789062 152.890625 C 160.269531 160.019531 163.816406 173.671875 163.78125 197.980469 C 163.78125 203.515625 163.601562 209.59375 163.210938 216.273438 C 162.949219 220.699219 166.328125 224.5 170.757812 224.757812 C 170.917969 224.765625 171.078125 224.773438 171.238281 224.773438 C 175.457031 224.769531 178.996094 221.480469 179.246094 217.210938 C 179.652344 210.25 179.839844 203.859375 179.839844 197.980469 C 179.828125 175.238281 177.0625 160.175781 172.9375 149.757812 C 168.867188 139.378906 163.046875 133.523438 157.648438 130.84375 C 154.21875 129.117188 151.210938 128.726562 149.394531 128.703125 C 149.277344 128.699219 149.15625 128.683594 149.035156 128.683594 L 122.378906 128.683594 C 122.382812 128.90625 122.386719 129.164062 122.390625 129.492188 C 122.371094 133.425781 121.9375 145.058594 116.957031 158.375 L 111.398438 156.035156 C 115.929688 143.765625 116.378906 132.960938 116.367188 129.492188 C 116.367188 129.132812 116.363281 128.871094 116.355469 128.683594 L 110.253906 128.683594 C 109.773438 128.683594 109.304688 128.734375 108.847656 128.820312 L 108.851562 128.828125 C 105.75 129.175781 103.066406 130.390625 100.710938 131.945312 C 97.9375 133.800781 95.539062 136.222656 93.46875 139.082031 C 89.367188 144.789062 86.519531 152.375 86.507812 161.003906 C 86.492188 167.464844 88.183594 174.464844 92.097656 181.179688 C 96.003906 187.90625 102.0625 194.300781 110.539062 199.972656 C 111.910156 200.890625 113.464844 201.328125 115 201.328125 C 117.589844 201.328125 120.128906 200.078125 121.679688 197.765625 C 124.144531 194.078125 123.15625 189.089844 119.46875 186.625 C 112.667969 182.066406 108.488281 177.421875 105.980469 173.109375 C 103.484375 168.785156 102.574219 164.75 102.566406 161.003906 C 102.558594 157.503906 103.402344 154.242188 104.691406 151.539062 C 105.960938 148.84375 107.71875 146.746094 109.101562 145.679688 C 109.527344 145.339844 109.890625 145.121094 110.171875 144.980469 L 110.355469 147.246094 C 109.308594 148.054688 107.699219 149.863281 106.507812 152.394531 C 105.234375 155.0625 104.566406 158.035156 104.574219 161 C 104.578125 162.976562 104.859375 164.898438 105.417969 166.796875 L 108.996094 158.289062 L 140.101562 171.390625 L 123.390625 211.074219 L 92.285156 197.976562 L 95.761719 189.726562 C 93.6875 187.3125 91.878906 184.800781 90.355469 182.1875 C 86.511719 175.585938 84.484375 168.257812 84.496094 161 C 84.507812 152.679688 87.117188 144.480469 91.835938 137.910156 C 94.117188 134.757812 96.726562 132.191406 99.59375 130.277344 C 102.449219 128.386719 105.75 127.195312 108.683594 126.800781 L 108.683594 126.816406 C 109.195312 126.734375 109.71875 126.679688 110.253906 126.679688 L 124.941406 126.679688 C 119.632812 125.546875 110.488281 123.8125 104.585938 123.894531 C 103.0625 123.917969 101.75 124.058594 100.785156 124.363281 C 94.425781 126.371094 76.691406 138.414062 70.167969 174.046875 C 65.261719 200.839844 85.46875 221.8125 100.488281 225.453125 Z M 100.488281 225.453125 " fill-opacity="1" fill-rule="nonzero"/></g><g clip-path="url(#ba22579f7a)"><path fill="#e8f5ff" d="M 152.230469 100.382812 C 152.230469 101.121094 152.191406 101.859375 152.121094 102.59375 C 152.046875 103.332031 151.9375 104.0625 151.792969 104.789062 C 151.648438 105.511719 151.472656 106.230469 151.257812 106.9375 C 151.042969 107.644531 150.792969 108.339844 150.507812 109.023438 C 150.226562 109.707031 149.910156 110.375 149.5625 111.027344 C 149.214844 111.679688 148.832031 112.3125 148.421875 112.929688 C 148.011719 113.542969 147.570312 114.136719 147.101562 114.707031 C 146.632812 115.28125 146.136719 115.828125 145.613281 116.351562 C 145.089844 116.875 144.542969 117.371094 143.972656 117.839844 C 143.398438 118.308594 142.804688 118.75 142.191406 119.160156 C 141.578125 119.570312 140.941406 119.949219 140.289062 120.300781 C 139.636719 120.648438 138.96875 120.964844 138.285156 121.246094 C 137.601562 121.53125 136.90625 121.777344 136.199219 121.992188 C 135.492188 122.207031 134.777344 122.386719 134.050781 122.53125 C 133.324219 122.675781 132.59375 122.785156 131.859375 122.855469 C 131.121094 122.929688 130.382812 122.964844 129.644531 122.964844 C 128.90625 122.964844 128.167969 122.929688 127.429688 122.855469 C 126.695312 122.785156 125.964844 122.675781 125.238281 122.53125 C 124.511719 122.386719 123.796875 122.207031 123.089844 121.992188 C 122.378906 121.777344 121.683594 121.53125 121 121.246094 C 120.316406 120.964844 119.648438 120.648438 118.996094 120.300781 C 118.34375 119.949219 117.710938 119.570312 117.097656 119.160156 C 116.480469 118.75 115.886719 118.308594 115.316406 117.839844 C 114.746094 117.371094 114.199219 116.875 113.675781 116.351562 C 113.152344 115.828125 112.65625 115.28125 112.1875 114.707031 C 111.71875 114.136719 111.277344 113.542969 110.867188 112.929688 C 110.453125 112.3125 110.074219 111.679688 109.726562 111.027344 C 109.378906 110.375 109.0625 109.707031 108.777344 109.023438 C 108.496094 108.339844 108.246094 107.644531 108.03125 106.9375 C 107.816406 106.230469 107.636719 105.511719 107.492188 104.789062 C 107.347656 104.0625 107.242188 103.332031 107.167969 102.59375 C 107.097656 101.859375 107.058594 101.121094 107.058594 100.382812 C 107.058594 99.640625 107.097656 98.902344 107.167969 98.167969 C 107.242188 97.429688 107.347656 96.699219 107.492188 95.976562 C 107.636719 95.25 107.816406 94.53125 108.03125 93.824219 C 108.246094 93.117188 108.496094 92.421875 108.777344 91.738281 C 109.0625 91.054688 109.378906 90.386719 109.726562 89.734375 C 110.074219 89.082031 110.453125 88.449219 110.867188 87.835938 C 111.277344 87.21875 111.71875 86.625 112.1875 86.054688 C 112.65625 85.480469 113.152344 84.933594 113.675781 84.410156 C 114.199219 83.886719 114.746094 83.390625 115.316406 82.921875 C 115.886719 82.453125 116.480469 82.015625 117.097656 81.601562 C 117.710938 81.191406 118.34375 80.8125 118.996094 80.464844 C 119.648438 80.113281 120.316406 79.800781 121 79.515625 C 121.683594 79.234375 122.378906 78.984375 123.089844 78.769531 C 123.796875 78.554688 124.511719 78.375 125.238281 78.230469 C 125.964844 78.085938 126.695312 77.976562 127.429688 77.90625 C 128.167969 77.832031 128.90625 77.796875 129.644531 77.796875 C 130.382812 77.796875 131.121094 77.832031 131.859375 77.90625 C 132.59375 77.976562 133.324219 78.085938 134.050781 78.230469 C 134.777344 78.375 135.492188 78.554688 136.199219 78.769531 C 136.90625 78.984375 137.601562 79.234375 138.285156 79.515625 C 138.96875 79.800781 139.636719 80.113281 140.289062 80.464844 C 140.941406 80.8125 141.578125 81.191406 142.191406 81.601562 C 142.804688 82.015625 143.398438 82.453125 143.972656 82.921875 C 144.542969 83.390625 145.089844 83.886719 145.613281 84.410156 C 146.136719 84.933594 146.632812 85.480469 147.101562 86.054688 C 147.570312 86.625 148.011719 87.21875 148.421875 87.835938 C 148.832031 88.449219 149.214844 89.082031 149.5625 89.734375 C 149.910156 90.386719 150.226562 91.054688 150.507812 91.738281 C 150.792969 92.421875 151.042969 93.117188 151.257812 93.824219 C 151.472656 94.53125 151.648438 95.25 151.792969 95.976562 C 151.9375 96.699219 152.046875 97.429688 152.121094 98.167969 C 152.191406 98.902344 152.230469 99.640625 152.230469 100.382812 Z M 152.230469 100.382812 " fill-opacity="1" fill-rule="nonzero"/></g><path fill="#e8f5ff" d="M 110.488281 168.824219 L 111.394531 166.671875 L 132.433594 175.53125 L 131.527344 177.683594 Z M 110.488281 168.824219 " fill-opacity="1" fill-rule="nonzero"/><path fill="#e8f5ff" d="M 108.675781 173.136719 L 109.582031 170.984375 L 130.628906 179.828125 L 129.726562 181.976562 Z M 108.675781 173.136719 " fill-opacity="1" fill-rule="nonzero"/><path fill="#e8f5ff" d="M 284.109375 207.617188 L 284.109375 149.464844 C 282.949219 149.464844 281.8125 149.480469 280.691406 149.507812 L 280.691406 145.484375 L 279.570312 145.484375 C 278.230469 145.484375 276.925781 145.511719 275.648438 145.554688 L 275.648438 141.265625 L 274.523438 141.265625 C 249.222656 141.265625 236.105469 151.460938 235.972656 151.566406 L 235.929688 151.597656 L 235.886719 151.5625 C 235.757812 151.460938 222.640625 141.265625 197.335938 141.265625 L 196.214844 141.265625 L 196.214844 145.554688 C 194.933594 145.511719 193.632812 145.484375 192.292969 145.484375 L 191.167969 145.484375 L 191.167969 149.507812 C 190.050781 149.480469 188.914062 149.464844 187.753906 149.464844 L 187.753906 207.617188 C 219.550781 207.617188 235.933594 214.207031 235.933594 214.207031 C 235.933594 214.207031 252.3125 207.621094 284.109375 207.617188 Z M 193.414062 147.617188 C 194.363281 147.625 195.292969 147.648438 196.214844 147.679688 L 196.214844 199.574219 C 196.210938 199.71875 196.234375 199.851562 196.277344 199.929688 C 196.472656 200.347656 196.585938 200.339844 196.640625 200.40625 C 196.816406 200.527344 196.792969 200.496094 196.820312 200.515625 C 196.832031 200.523438 196.835938 200.523438 196.835938 200.523438 L 198.460938 201.292969 L 198.460938 200.640625 C 210.230469 200.785156 219.15625 203.191406 225.1875 205.578125 C 226.304688 206.023438 227.320312 206.464844 228.238281 206.894531 C 221.347656 205.058594 209.699219 202.828125 193.414062 202.730469 Z M 225.1875 148.335938 C 228.292969 149.570312 230.628906 150.796875 232.175781 151.714844 C 232.953125 152.171875 233.53125 152.550781 233.914062 152.8125 C 233.960938 152.84375 234.007812 152.878906 234.050781 152.910156 L 234.050781 207.566406 C 229.710938 204.878906 217.722656 198.746094 198.460938 198.515625 L 198.460938 143.398438 C 210.230469 143.542969 219.15625 145.949219 225.1875 148.335938 Z M 273.402344 143.398438 L 273.402344 198.515625 C 254.140625 198.746094 242.148438 204.878906 237.808594 207.566406 L 237.808594 152.910156 C 240.121094 151.296875 252.136719 143.660156 273.402344 143.398438 Z M 278.449219 202.726562 C 262.160156 202.828125 250.507812 205.058594 243.617188 206.894531 C 249.59375 204.105469 259.855469 200.675781 274.261719 200.632812 L 275.648438 201.289062 L 275.648438 147.679688 C 276.566406 147.648438 277.496094 147.625 278.449219 147.613281 Z M 278.449219 202.726562 " fill-opacity="1" fill-rule="nonzero"/></svg>