<svg xmlns="http://www.w3.org/2000/svg" xmlns:xlink="http://www.w3.org/1999/xlink" width="500" zoomAndPan="magnify" viewBox="0 0 375 374.999991" height="500" preserveAspectRatio="xMidYMid meet" version="1.0"><defs><clipPath id="f35a14c617"><path d="M 88.773438 60.929688 L 286.023438 60.929688 L 286.023438 306 L 88.773438 306 Z M 88.773438 60.929688 " clip-rule="nonzero"/></clipPath></defs><rect x="-37.5" width="450" fill="#ffffff" y="-37.499999" height="449.999989" fill-opacity="1"/><rect x="-37.5" width="450" fill="#032759" y="-37.499999" height="449.999989" fill-opacity="1"/><g clip-path="url(#f35a14c617)"><path fill="#e8f5ff" d="M 214.925781 241.765625 C 238.890625 204.03125 265.085938 162.152344 265.085938 139.332031 C 265.085938 96.085938 229.910156 60.90625 186.671875 60.90625 C 143.425781 60.90625 108.246094 96.085938 108.246094 139.332031 C 108.246094 160.832031 135.476562 204.996094 158.652344 241.894531 C 124.707031 245.097656 88.890625 254.773438 88.890625 273.042969 C 88.890625 282.992188 99.65625 291.386719 120.027344 297.320312 C 177.476562 314.046875 286.105469 304.636719 286.105469 273.042969 C 286.105469 254.476562 249.546875 244.835938 214.925781 241.765625 Z M 186.671875 267.050781 C 166.132812 232.570312 118.792969 163.8125 118.792969 139.332031 C 118.792969 101.902344 149.242188 71.453125 186.671875 71.453125 C 224.09375 71.453125 254.539062 101.902344 254.539062 139.332031 C 254.539062 165.417969 207.433594 232.269531 186.671875 267.050781 Z M 186.671875 267.050781 " fill-opacity="1" fill-rule="nonzero"/></g><path fill="#e8f5ff" d="M 186.671875 98.605469 C 165.738281 98.605469 148.707031 115.636719 148.707031 136.574219 C 148.707031 157.5 165.738281 174.527344 186.671875 174.527344 C 207.597656 174.527344 224.621094 157.5 224.621094 136.574219 C 224.621094 115.636719 207.597656 98.605469 186.671875 98.605469 Z M 186.671875 163.980469 C 171.550781 163.980469 159.253906 151.6875 159.253906 136.574219 C 159.253906 121.453125 171.550781 109.152344 186.671875 109.152344 C 201.78125 109.152344 214.078125 121.453125 214.078125 136.574219 C 214.078125 151.683594 201.78125 163.980469 186.671875 163.980469 Z M 186.671875 163.980469 " fill-opacity="1" fill-rule="nonzero"/></svg>