<svg xmlns="http://www.w3.org/2000/svg" xmlns:xlink="http://www.w3.org/1999/xlink" width="500" zoomAndPan="magnify" viewBox="0 0 375 374.999991" height="500" preserveAspectRatio="xMidYMid meet" version="1.0"><defs><clipPath id="4833a8077d"><path d="M 44 86.769531 L 337 86.769531 L 337 310.269531 L 44 310.269531 Z M 44 86.769531 " clip-rule="nonzero"/></clipPath></defs><rect x="-37.5" width="450" fill="#ffffff" y="-37.499999" height="449.999989" fill-opacity="1"/><rect x="-37.5" width="450" fill="#032759" y="-37.499999" height="449.999989" fill-opacity="1"/><g clip-path="url(#4833a8077d)"><path fill="#ffffff" d="M 332.582031 274.8125 C 332.582031 274.800781 332.59375 274.800781 332.582031 274.8125 C 332.582031 274.800781 332.582031 274.800781 332.582031 274.792969 L 329.515625 255.457031 L 304.5 97.949219 C 304.394531 97.28125 304.015625 96.675781 303.472656 96.277344 C 302.929688 95.875 302.261719 95.710938 301.566406 95.816406 L 258.558594 102.644531 C 257.152344 102.871094 256.207031 104.183594 256.421875 105.578125 L 262.289062 142.515625 L 218.984375 142.515625 L 218.984375 89.035156 C 218.984375 87.621094 217.835938 86.472656 216.421875 86.472656 L 145.03125 86.472656 C 143.617188 86.472656 142.464844 87.621094 142.464844 89.035156 L 142.464844 118.953125 L 74.460938 108.964844 C 73.085938 108.800781 71.753906 109.746094 71.546875 111.148438 L 67.273438 140.308594 C 67.273438 140.320312 67.261719 140.320312 67.261719 140.332031 C 67.261719 140.339844 67.273438 140.351562 67.273438 140.363281 L 64.503906 159.183594 C 64.503906 159.183594 64.492188 159.195312 64.492188 159.195312 C 64.492188 159.195312 64.492188 159.203125 64.492188 159.203125 L 51.445312 248.070312 C 51.445312 248.070312 51.445312 248.070312 51.445312 248.082031 L 49.015625 264.597656 C 49.015625 264.605469 49.003906 264.605469 49.003906 264.605469 C 49.003906 264.617188 49.015625 264.617188 49.003906 264.625 L 44.398438 295.960938 C 44.296875 296.628906 44.46875 297.316406 44.878906 297.871094 C 45.28125 298.414062 45.894531 298.773438 46.5625 298.875 L 117.5 309.296875 C 117.625 309.308594 117.746094 309.316406 117.871094 309.316406 C 119.121094 309.316406 120.21875 308.40625 120.402344 307.121094 L 124.875 276.679688 C 124.875 276.667969 124.886719 276.660156 124.894531 276.648438 C 124.894531 276.636719 124.886719 276.628906 124.886719 276.617188 L 127.386719 259.582031 C 127.386719 259.570312 127.398438 259.570312 127.398438 259.558594 C 127.398438 259.550781 127.398438 259.550781 127.398438 259.539062 L 140.332031 171.472656 C 140.332031 171.460938 140.34375 171.460938 140.34375 171.449219 C 140.34375 171.441406 140.332031 171.441406 140.34375 171.429688 L 142.464844 157.007812 L 142.464844 306.269531 C 142.464844 307.6875 143.617188 308.835938 145.03125 308.835938 L 264.917969 308.835938 C 266.332031 308.835938 267.480469 307.6875 267.480469 306.269531 L 267.480469 175.164062 L 281.460938 263.230469 C 281.460938 263.230469 281.460938 263.230469 281.460938 263.242188 C 281.460938 263.242188 281.460938 263.242188 281.460938 263.253906 L 288.601562 308.199219 C 288.710938 308.867188 289.082031 309.480469 289.636719 309.871094 C 290.078125 310.1875 290.601562 310.363281 291.132812 310.363281 C 291.265625 310.363281 291.398438 310.351562 291.535156 310.332031 L 334.542969 303.5 C 335.945312 303.277344 336.890625 301.960938 336.675781 300.566406 Z M 135.65625 168.105469 L 69.929688 157.480469 L 71.960938 143.664062 L 137.75 153.902344 Z M 120.199219 273.304688 L 54.441406 262.871094 L 56.132812 251.375 L 121.960938 261.324219 Z M 122.710938 256.257812 L 56.882812 246.308594 L 69.191406 162.546875 L 134.917969 173.175781 Z M 218.972656 191.75 L 262.339844 191.75 L 262.339844 206.570312 L 218.972656 206.570312 Z M 213.847656 145.089844 L 213.847656 241.847656 L 147.585938 241.847656 L 147.585938 126.84375 L 213.847656 126.84375 Z M 213.847656 121.714844 L 147.585938 121.714844 L 147.585938 114.0625 L 213.847656 114.0625 Z M 147.585938 246.972656 L 213.847656 246.972656 L 213.847656 264.925781 L 147.585938 264.925781 Z M 218.972656 211.699219 L 262.339844 211.699219 L 262.339844 284.710938 L 218.972656 284.710938 Z M 262.339844 147.65625 L 262.339844 186.621094 L 218.972656 186.621094 L 218.972656 147.65625 Z M 213.847656 91.597656 L 213.847656 108.933594 L 147.585938 108.933594 L 147.585938 91.597656 Z M 76.246094 114.421875 L 142.117188 124.09375 L 138.488281 148.824219 L 72.699219 138.585938 Z M 115.714844 303.839844 L 49.84375 294.167969 L 53.691406 267.949219 L 119.449219 278.382812 Z M 147.585938 270.054688 L 213.847656 270.054688 L 213.847656 303.707031 L 147.585938 303.707031 Z M 218.972656 303.707031 L 218.972656 289.828125 L 262.339844 289.828125 L 262.339844 303.707031 Z M 286.929688 264.945312 L 324.847656 258.800781 L 327.136719 273.191406 L 289.339844 280.15625 Z M 270.3125 160.3125 L 308.148438 153.605469 L 324.046875 253.742188 L 286.128906 259.886719 Z M 267.523438 142.773438 L 305.339844 135.949219 L 307.339844 148.535156 L 269.5 155.246094 Z M 299.832031 101.292969 L 304.527344 130.882812 L 266.710938 137.707031 L 261.878906 107.3125 Z M 293.265625 304.855469 L 290.148438 285.234375 L 327.945312 278.269531 L 331.207031 298.835938 Z M 293.265625 304.855469 " fill-opacity="1" fill-rule="nonzero"/></g></svg>