<svg xmlns="http://www.w3.org/2000/svg" xmlns:xlink="http://www.w3.org/1999/xlink" width="500" zoomAndPan="magnify" viewBox="0 0 375 374.999991" height="500" preserveAspectRatio="xMidYMid meet" version="1.0"><defs><clipPath id="80c4e5852d"><path d="M 45.234375 81.574219 L 329.484375 81.574219 L 329.484375 293.074219 L 45.234375 293.074219 Z M 45.234375 81.574219 " clip-rule="nonzero"/></clipPath></defs><rect x="-37.5" width="450" fill="#ffffff" y="-37.499999" height="449.999989" fill-opacity="1"/><rect x="-37.5" width="450" fill="#032759" y="-37.499999" height="449.999989" fill-opacity="1"/><g clip-path="url(#80c4e5852d)"><path fill="#e8f5ff" d="M 48.832031 146.675781 C 45.664062 145.351562 45.417969 142.417969 45.417969 141.550781 C 45.417969 140.683594 45.664062 137.746094 48.832031 136.425781 L 173.933594 84.171875 C 178.253906 82.367188 182.816406 81.453125 187.496094 81.453125 C 192.175781 81.453125 196.738281 82.367188 201.058594 84.171875 L 326.15625 136.425781 C 329.324219 137.746094 329.570312 140.683594 329.570312 141.550781 C 329.570312 142.417969 329.324219 145.351562 326.15625 146.675781 L 201.058594 198.925781 C 196.738281 200.730469 192.175781 201.644531 187.496094 201.644531 C 182.816406 201.644531 178.253906 200.730469 173.933594 198.925781 Z M 326.15625 228.003906 C 329.324219 229.328125 329.570312 232.261719 329.570312 233.128906 C 329.570312 234 329.324219 236.933594 326.15625 238.257812 L 201.058594 290.507812 C 196.738281 292.3125 192.175781 293.226562 187.496094 293.226562 C 182.816406 293.226562 178.253906 292.3125 173.933594 290.507812 L 48.832031 238.257812 C 45.664062 236.933594 45.417969 234 45.417969 233.128906 C 45.417969 232.261719 45.664062 229.328125 48.832031 228.003906 L 82.246094 214.050781 L 171.222656 251.210938 C 176.429688 253.386719 181.960938 254.472656 187.496094 254.472656 C 193.027344 254.472656 198.5625 253.386719 203.769531 251.210938 L 292.742188 214.050781 Z M 326.15625 192.464844 L 201.058594 244.71875 C 196.738281 246.519531 192.175781 247.4375 187.496094 247.4375 C 182.816406 247.4375 178.253906 246.519531 173.933594 244.71875 L 48.832031 192.464844 C 45.664062 191.144531 45.417969 188.207031 45.417969 187.339844 C 45.417969 186.472656 45.664062 183.539062 48.832031 182.214844 L 82.246094 168.257812 L 171.222656 205.421875 C 176.429688 207.597656 181.960938 208.683594 187.496094 208.683594 C 193.027344 208.683594 198.5625 207.597656 203.769531 205.421875 L 292.742188 168.257812 L 326.15625 182.214844 C 329.324219 183.539062 329.570312 186.472656 329.570312 187.339844 C 329.570312 188.207031 329.324219 191.144531 326.15625 192.464844 Z M 326.15625 192.464844 " fill-opacity="1" fill-rule="nonzero"/></g></svg>