<svg xmlns="http://www.w3.org/2000/svg" xmlns:xlink="http://www.w3.org/1999/xlink" width="500" zoomAndPan="magnify" viewBox="0 0 375 374.999991" height="500" preserveAspectRatio="xMidYMid meet" version="1.0"><defs><clipPath id="58c88d0ccf"><path d="M 148 66.613281 L 224 66.613281 L 224 142 L 148 142 Z M 148 66.613281 " clip-rule="nonzero"/></clipPath><clipPath id="7cb9e4f875"><path d="M 105.003906 179 L 131 179 L 131 206 L 105.003906 206 Z M 105.003906 179 " clip-rule="nonzero"/></clipPath><clipPath id="13ea421b68"><path d="M 59 211.355469 L 97 211.355469 L 97 249 L 59 249 Z M 59 211.355469 " clip-rule="nonzero"/></clipPath><clipPath id="f6acd6e1f3"><path d="M 81 245 L 114 245 L 114 308.105469 L 81 308.105469 Z M 81 245 " clip-rule="nonzero"/></clipPath><clipPath id="000183ee54"><path d="M 76 257 L 81 257 L 81 308.105469 L 76 308.105469 Z M 76 257 " clip-rule="nonzero"/></clipPath><clipPath id="16d9655385"><path d="M 107 268 L 120 268 L 120 281 L 107 281 Z M 107 268 " clip-rule="nonzero"/></clipPath><clipPath id="2458bb67d8"><path d="M 37.5 267 L 51 267 L 51 281 L 37.5 281 Z M 37.5 267 " clip-rule="nonzero"/></clipPath><clipPath id="ddb95816be"><path d="M 276 211.355469 L 315 211.355469 L 315 249 L 276 249 Z M 276 211.355469 " clip-rule="nonzero"/></clipPath><clipPath id="6163d63abb"><path d="M 298 245 L 332 245 L 332 308.105469 L 298 308.105469 Z M 298 245 " clip-rule="nonzero"/></clipPath><clipPath id="2ee43f3325"><path d="M 293 257 L 298 257 L 298 308.105469 L 293 308.105469 Z M 293 257 " clip-rule="nonzero"/></clipPath><clipPath id="9e6763e8ec"><path d="M 324 268 L 337.160156 268 L 337.160156 281 L 324 281 Z M 324 268 " clip-rule="nonzero"/></clipPath><clipPath id="8227fbe641"><path d="M 254.660156 267 L 268 267 L 268 281 L 254.660156 281 Z M 254.660156 267 " clip-rule="nonzero"/></clipPath></defs><rect x="-37.5" width="450" fill="#ffffff" y="-37.499999" height="449.999989" fill-opacity="1"/><rect x="-37.5" width="450" fill="#032759" y="-37.499999" height="449.999989" fill-opacity="1"/><g clip-path="url(#58c88d0ccf)"><path fill="#e8f5ff" d="M 223.332031 104.207031 C 223.332031 105.429688 223.269531 106.652344 223.152344 107.871094 C 223.03125 109.089844 222.851562 110.296875 222.613281 111.5 C 222.375 112.699219 222.078125 113.886719 221.722656 115.058594 C 221.367188 116.226562 220.953125 117.378906 220.484375 118.511719 C 220.015625 119.640625 219.492188 120.746094 218.917969 121.828125 C 218.339844 122.90625 217.710938 123.957031 217.03125 124.972656 C 216.351562 125.992188 215.621094 126.972656 214.847656 127.917969 C 214.070312 128.867188 213.246094 129.773438 212.382812 130.636719 C 211.515625 131.503906 210.609375 132.324219 209.664062 133.101562 C 208.71875 133.878906 207.734375 134.605469 206.71875 135.285156 C 205.699219 135.964844 204.652344 136.59375 203.570312 137.171875 C 202.492188 137.75 201.386719 138.273438 200.253906 138.742188 C 199.125 139.210938 197.972656 139.621094 196.800781 139.976562 C 195.628906 140.332031 194.445312 140.628906 193.242188 140.867188 C 192.042969 141.105469 190.832031 141.285156 189.613281 141.40625 C 188.394531 141.527344 187.175781 141.585938 185.949219 141.585938 C 184.726562 141.585938 183.503906 141.527344 182.285156 141.40625 C 181.066406 141.285156 179.859375 141.105469 178.65625 140.867188 C 177.457031 140.628906 176.269531 140.332031 175.097656 139.976562 C 173.929688 139.621094 172.777344 139.210938 171.644531 138.742188 C 170.515625 138.273438 169.410156 137.75 168.328125 137.171875 C 167.25 136.59375 166.199219 135.964844 165.183594 135.285156 C 164.164062 134.605469 163.183594 133.878906 162.238281 133.101562 C 161.289062 132.324219 160.382812 131.503906 159.519531 130.636719 C 158.652344 129.773438 157.832031 128.867188 157.054688 127.917969 C 156.277344 126.972656 155.550781 125.992188 154.871094 124.972656 C 154.191406 123.957031 153.5625 122.90625 152.984375 121.828125 C 152.40625 120.746094 151.882812 119.640625 151.414062 118.511719 C 150.945312 117.378906 150.535156 116.226562 150.179688 115.058594 C 149.824219 113.886719 149.527344 112.699219 149.289062 111.5 C 149.050781 110.296875 148.871094 109.089844 148.75 107.871094 C 148.628906 106.652344 148.570312 105.429688 148.570312 104.207031 C 148.570312 102.980469 148.628906 101.761719 148.75 100.542969 C 148.871094 99.324219 149.050781 98.113281 149.289062 96.914062 C 149.527344 95.710938 149.824219 94.527344 150.179688 93.355469 C 150.535156 92.183594 150.945312 91.03125 151.414062 89.902344 C 151.882812 88.769531 152.40625 87.664062 152.984375 86.585938 C 153.5625 85.503906 154.191406 84.457031 154.871094 83.4375 C 155.550781 82.421875 156.277344 81.4375 157.054688 80.492188 C 157.832031 79.546875 158.652344 78.640625 159.519531 77.773438 C 160.382812 76.910156 161.289062 76.085938 162.238281 75.3125 C 163.183594 74.535156 164.164062 73.804688 165.183594 73.125 C 166.199219 72.445312 167.25 71.816406 168.328125 71.238281 C 169.410156 70.664062 170.515625 70.140625 171.644531 69.671875 C 172.777344 69.203125 173.929688 68.789062 175.097656 68.433594 C 176.269531 68.078125 177.457031 67.78125 178.65625 67.542969 C 179.859375 67.304688 181.066406 67.125 182.285156 67.003906 C 183.503906 66.886719 184.726562 66.824219 185.949219 66.824219 C 187.175781 66.824219 188.394531 66.886719 189.613281 67.003906 C 190.832031 67.125 192.042969 67.304688 193.242188 67.542969 C 194.445312 67.78125 195.628906 68.078125 196.800781 68.433594 C 197.972656 68.789062 199.125 69.203125 200.253906 69.671875 C 201.386719 70.140625 202.492188 70.664062 203.570312 71.238281 C 204.652344 71.816406 205.699219 72.445312 206.71875 73.125 C 207.734375 73.804688 208.71875 74.535156 209.664062 75.3125 C 210.609375 76.085938 211.515625 76.910156 212.382812 77.773438 C 213.246094 78.640625 214.070312 79.546875 214.847656 80.492188 C 215.621094 81.4375 216.351562 82.421875 217.03125 83.4375 C 217.710938 84.457031 218.339844 85.503906 218.917969 86.585938 C 219.492188 87.664062 220.015625 88.769531 220.484375 89.902344 C 220.953125 91.03125 221.367188 92.183594 221.722656 93.355469 C 222.078125 94.527344 222.375 95.710938 222.613281 96.914062 C 222.851562 98.113281 223.03125 99.324219 223.152344 100.542969 C 223.269531 101.761719 223.332031 102.980469 223.332031 104.207031 Z M 223.332031 104.207031 " fill-opacity="1" fill-rule="nonzero"/></g><path fill="#e8f5ff" d="M 241.375 192.113281 C 241.375 183.605469 248.335938 176.644531 256.84375 176.644531 L 256.84375 134.882812 L 253.492188 134.882812 L 192.910156 159.117188 L 192.910156 259.140625 L 196.261719 259.140625 L 257.101562 234.90625 L 257.101562 207.839844 C 248.335938 207.582031 241.375 200.621094 241.375 192.113281 Z M 241.375 192.113281 " fill-opacity="1" fill-rule="nonzero"/><path fill="#e8f5ff" d="M 116.089844 134.625 L 116.089844 176.902344 C 116.605469 176.902344 117.121094 176.902344 117.636719 176.902344 C 126.140625 176.902344 133.101562 183.863281 133.101562 192.371094 C 133.101562 200.878906 126.140625 207.839844 117.636719 207.839844 C 117.121094 207.839844 116.605469 207.839844 116.089844 207.839844 L 116.089844 234.648438 L 176.925781 258.882812 L 180.277344 258.882812 L 180.277344 158.859375 L 119.441406 134.625 Z M 116.089844 134.625 " fill-opacity="1" fill-rule="nonzero"/><path fill="#e8f5ff" d="M 182.597656 157.828125 L 190.332031 157.828125 L 190.332031 259.65625 L 182.597656 259.65625 Z M 182.597656 157.828125 " fill-opacity="1" fill-rule="nonzero"/><path fill="#e8f5ff" d="M 257.101562 179.480469 C 250.140625 179.480469 244.210938 185.152344 244.210938 192.371094 C 244.210938 199.332031 249.882812 205.261719 257.101562 205.261719 C 264.320312 205.261719 269.992188 199.589844 269.992188 192.371094 C 269.734375 185.152344 264.0625 179.480469 257.101562 179.480469 Z M 257.101562 179.480469 " fill-opacity="1" fill-rule="nonzero"/><g clip-path="url(#7cb9e4f875)"><path fill="#e8f5ff" d="M 105.003906 192.113281 C 105.003906 199.074219 110.675781 205.003906 117.894531 205.003906 C 125.109375 205.003906 130.78125 199.332031 130.78125 192.113281 C 130.78125 185.152344 125.109375 179.222656 117.894531 179.222656 C 110.675781 179.222656 105.003906 185.152344 105.003906 192.113281 Z M 105.003906 192.113281 " fill-opacity="1" fill-rule="nonzero"/></g><g clip-path="url(#13ea421b68)"><path fill="#e8f5ff" d="M 96.902344 230.230469 C 96.902344 230.84375 96.875 231.457031 96.8125 232.070312 C 96.753906 232.679688 96.664062 233.289062 96.542969 233.890625 C 96.421875 234.492188 96.273438 235.089844 96.09375 235.675781 C 95.917969 236.265625 95.710938 236.84375 95.476562 237.410156 C 95.238281 237.980469 94.976562 238.535156 94.6875 239.074219 C 94.398438 239.617188 94.082031 240.144531 93.742188 240.65625 C 93.398438 241.167969 93.035156 241.660156 92.644531 242.132812 C 92.253906 242.609375 91.839844 243.0625 91.40625 243.5 C 90.972656 243.933594 90.515625 244.347656 90.042969 244.734375 C 89.566406 245.125 89.074219 245.492188 88.5625 245.832031 C 88.050781 246.175781 87.527344 246.488281 86.984375 246.78125 C 86.441406 247.070312 85.886719 247.332031 85.320312 247.566406 C 84.75 247.800781 84.171875 248.007812 83.585938 248.1875 C 82.996094 248.367188 82.402344 248.515625 81.796875 248.632812 C 81.195312 248.753906 80.589844 248.84375 79.976562 248.90625 C 79.367188 248.964844 78.753906 248.996094 78.136719 248.996094 C 77.523438 248.996094 76.910156 248.964844 76.296875 248.90625 C 75.6875 248.84375 75.078125 248.753906 74.476562 248.632812 C 73.875 248.515625 73.277344 248.367188 72.691406 248.1875 C 72.101562 248.007812 71.523438 247.800781 70.957031 247.566406 C 70.386719 247.332031 69.832031 247.070312 69.292969 246.78125 C 68.75 246.488281 68.222656 246.175781 67.710938 245.832031 C 67.199219 245.492188 66.707031 245.125 66.234375 244.734375 C 65.757812 244.347656 65.304688 243.933594 64.867188 243.5 C 64.433594 243.0625 64.019531 242.609375 63.632812 242.132812 C 63.242188 241.660156 62.875 241.167969 62.535156 240.65625 C 62.191406 240.144531 61.878906 239.617188 61.585938 239.074219 C 61.296875 238.535156 61.035156 237.980469 60.800781 237.410156 C 60.566406 236.84375 60.359375 236.265625 60.179688 235.675781 C 60 235.089844 59.851562 234.492188 59.730469 233.890625 C 59.613281 233.289062 59.523438 232.679688 59.460938 232.070312 C 59.402344 231.457031 59.371094 230.84375 59.371094 230.230469 C 59.371094 229.613281 59.402344 229 59.460938 228.390625 C 59.523438 227.777344 59.613281 227.171875 59.730469 226.570312 C 59.851562 225.964844 60 225.371094 60.179688 224.78125 C 60.359375 224.195312 60.566406 223.617188 60.800781 223.046875 C 61.035156 222.480469 61.296875 221.925781 61.585938 221.382812 C 61.878906 220.839844 62.191406 220.316406 62.535156 219.804688 C 62.875 219.292969 63.242188 218.800781 63.632812 218.324219 C 64.019531 217.847656 64.433594 217.394531 64.867188 216.960938 C 65.304688 216.527344 65.757812 216.113281 66.234375 215.722656 C 66.707031 215.332031 67.199219 214.96875 67.710938 214.625 C 68.222656 214.285156 68.75 213.96875 69.292969 213.679688 C 69.832031 213.390625 70.386719 213.128906 70.957031 212.890625 C 71.523438 212.65625 72.101562 212.449219 72.691406 212.273438 C 73.277344 212.09375 73.875 211.945312 74.476562 211.824219 C 75.078125 211.703125 75.6875 211.613281 76.296875 211.554688 C 76.910156 211.492188 77.523438 211.464844 78.136719 211.464844 C 78.753906 211.464844 79.367188 211.492188 79.976562 211.554688 C 80.589844 211.613281 81.195312 211.703125 81.796875 211.824219 C 82.402344 211.945312 82.996094 212.09375 83.585938 212.273438 C 84.171875 212.449219 84.75 212.65625 85.320312 212.890625 C 85.886719 213.128906 86.441406 213.390625 86.984375 213.679688 C 87.527344 213.96875 88.050781 214.285156 88.5625 214.625 C 89.074219 214.96875 89.566406 215.332031 90.042969 215.722656 C 90.515625 216.113281 90.972656 216.527344 91.40625 216.960938 C 91.839844 217.394531 92.253906 217.847656 92.644531 218.324219 C 93.035156 218.800781 93.398438 219.292969 93.742188 219.804688 C 94.082031 220.316406 94.398438 220.839844 94.6875 221.382812 C 94.976562 221.925781 95.238281 222.480469 95.476562 223.046875 C 95.710938 223.617188 95.917969 224.195312 96.09375 224.78125 C 96.273438 225.371094 96.421875 225.964844 96.542969 226.570312 C 96.664062 227.171875 96.753906 227.777344 96.8125 228.390625 C 96.875 229 96.902344 229.613281 96.902344 230.230469 Z M 96.902344 230.230469 " fill-opacity="1" fill-rule="nonzero"/></g><g clip-path="url(#f6acd6e1f3)"><path fill="#e8f5ff" d="M 105.960938 274.363281 C 105.960938 270.089844 109.457031 266.597656 113.726562 266.597656 L 113.726562 245.628906 L 112.046875 245.628906 L 81.632812 257.796875 L 81.632812 308.011719 L 83.3125 308.011719 L 113.855469 295.84375 L 113.855469 282.257812 C 109.457031 282.125 105.960938 278.632812 105.960938 274.363281 Z M 105.960938 274.363281 " fill-opacity="1" fill-rule="nonzero"/></g><path fill="#e8f5ff" d="M 43.066406 245.5 L 43.066406 266.726562 C 43.324219 266.726562 43.582031 266.726562 43.839844 266.726562 C 48.113281 266.726562 51.605469 270.21875 51.605469 274.492188 C 51.605469 278.761719 48.113281 282.257812 43.839844 282.257812 C 43.582031 282.257812 43.324219 282.257812 43.066406 282.257812 L 43.066406 295.714844 L 73.609375 307.882812 L 75.289062 307.882812 L 75.289062 257.667969 L 44.746094 245.5 Z M 43.066406 245.5 " fill-opacity="1" fill-rule="nonzero"/><g clip-path="url(#000183ee54)"><path fill="#e8f5ff" d="M 76.457031 257.148438 L 80.335938 257.148438 L 80.335938 308.269531 L 76.457031 308.269531 Z M 76.457031 257.148438 " fill-opacity="1" fill-rule="nonzero"/></g><g clip-path="url(#16d9655385)"><path fill="#e8f5ff" d="M 113.855469 268.019531 C 110.363281 268.019531 107.386719 270.867188 107.386719 274.492188 C 107.386719 277.984375 110.234375 280.960938 113.855469 280.960938 C 117.480469 280.960938 120.328125 278.113281 120.328125 274.492188 C 120.199219 270.867188 117.351562 268.019531 113.855469 268.019531 Z M 113.855469 268.019531 " fill-opacity="1" fill-rule="nonzero"/></g><g clip-path="url(#2458bb67d8)"><path fill="#e8f5ff" d="M 37.5 274.363281 C 37.5 277.855469 40.347656 280.832031 43.972656 280.832031 C 47.59375 280.832031 50.441406 277.984375 50.441406 274.363281 C 50.441406 270.867188 47.59375 267.890625 43.972656 267.890625 C 40.347656 267.890625 37.5 270.867188 37.5 274.363281 Z M 37.5 274.363281 " fill-opacity="1" fill-rule="nonzero"/></g><g clip-path="url(#ddb95816be)"><path fill="#e8f5ff" d="M 314.0625 230.230469 C 314.0625 230.84375 314.035156 231.457031 313.972656 232.070312 C 313.914062 232.679688 313.824219 233.289062 313.703125 233.890625 C 313.582031 234.492188 313.433594 235.089844 313.257812 235.675781 C 313.078125 236.265625 312.871094 236.84375 312.636719 237.410156 C 312.402344 237.980469 312.136719 238.535156 311.847656 239.074219 C 311.558594 239.617188 311.242188 240.144531 310.902344 240.65625 C 310.558594 241.167969 310.195312 241.660156 309.804688 242.132812 C 309.414062 242.609375 309.003906 243.0625 308.566406 243.5 C 308.132812 243.933594 307.679688 244.347656 307.203125 244.734375 C 306.726562 245.125 306.234375 245.492188 305.722656 245.832031 C 305.214844 246.175781 304.6875 246.488281 304.144531 246.78125 C 303.601562 247.070312 303.046875 247.332031 302.480469 247.566406 C 301.914062 247.800781 301.335938 248.007812 300.746094 248.1875 C 300.15625 248.367188 299.5625 248.515625 298.960938 248.632812 C 298.355469 248.753906 297.75 248.84375 297.136719 248.90625 C 296.527344 248.964844 295.914062 248.996094 295.296875 248.996094 C 294.683594 248.996094 294.070312 248.964844 293.460938 248.90625 C 292.847656 248.84375 292.242188 248.753906 291.636719 248.632812 C 291.035156 248.515625 290.4375 248.367188 289.851562 248.1875 C 289.261719 248.007812 288.683594 247.800781 288.117188 247.566406 C 287.550781 247.332031 286.996094 247.070312 286.453125 246.78125 C 285.910156 246.488281 285.382812 246.175781 284.871094 245.832031 C 284.363281 245.492188 283.867188 245.125 283.394531 244.734375 C 282.917969 244.347656 282.464844 243.933594 282.027344 243.5 C 281.59375 243.0625 281.183594 242.609375 280.792969 242.132812 C 280.402344 241.660156 280.035156 241.167969 279.695312 240.65625 C 279.355469 240.144531 279.039062 239.617188 278.75 239.074219 C 278.460938 238.535156 278.195312 237.980469 277.960938 237.410156 C 277.726562 236.84375 277.519531 236.265625 277.339844 235.675781 C 277.164062 235.089844 277.011719 234.492188 276.894531 233.890625 C 276.773438 233.289062 276.683594 232.679688 276.625 232.070312 C 276.5625 231.457031 276.53125 230.84375 276.53125 230.230469 C 276.53125 229.613281 276.5625 229 276.625 228.390625 C 276.683594 227.777344 276.773438 227.171875 276.894531 226.570312 C 277.011719 225.964844 277.164062 225.371094 277.339844 224.78125 C 277.519531 224.195312 277.726562 223.617188 277.960938 223.046875 C 278.195312 222.480469 278.460938 221.925781 278.75 221.382812 C 279.039062 220.839844 279.355469 220.316406 279.695312 219.804688 C 280.035156 219.292969 280.402344 218.800781 280.792969 218.324219 C 281.183594 217.847656 281.59375 217.394531 282.027344 216.960938 C 282.464844 216.527344 282.917969 216.113281 283.394531 215.722656 C 283.867188 215.332031 284.363281 214.96875 284.871094 214.625 C 285.382812 214.285156 285.910156 213.96875 286.453125 213.679688 C 286.996094 213.390625 287.550781 213.128906 288.117188 212.890625 C 288.683594 212.65625 289.261719 212.449219 289.851562 212.273438 C 290.4375 212.09375 291.035156 211.945312 291.636719 211.824219 C 292.242188 211.703125 292.847656 211.613281 293.460938 211.554688 C 294.070312 211.492188 294.683594 211.464844 295.296875 211.464844 C 295.914062 211.464844 296.527344 211.492188 297.136719 211.554688 C 297.75 211.613281 298.355469 211.703125 298.960938 211.824219 C 299.5625 211.945312 300.15625 212.09375 300.746094 212.273438 C 301.335938 212.449219 301.914062 212.65625 302.480469 212.890625 C 303.046875 213.128906 303.601562 213.390625 304.144531 213.679688 C 304.6875 213.96875 305.214844 214.285156 305.722656 214.625 C 306.234375 214.96875 306.726562 215.332031 307.203125 215.722656 C 307.679688 216.113281 308.132812 216.527344 308.566406 216.960938 C 309.003906 217.394531 309.414062 217.847656 309.804688 218.324219 C 310.195312 218.800781 310.558594 219.292969 310.902344 219.804688 C 311.242188 220.316406 311.558594 220.839844 311.847656 221.382812 C 312.136719 221.925781 312.402344 222.480469 312.636719 223.046875 C 312.871094 223.617188 313.078125 224.195312 313.257812 224.78125 C 313.433594 225.371094 313.582031 225.964844 313.703125 226.570312 C 313.824219 227.171875 313.914062 227.777344 313.972656 228.390625 C 314.035156 229 314.0625 229.613281 314.0625 230.230469 Z M 314.0625 230.230469 " fill-opacity="1" fill-rule="nonzero"/></g><g clip-path="url(#6163d63abb)"><path fill="#e8f5ff" d="M 323.125 274.363281 C 323.125 270.089844 326.617188 266.597656 330.890625 266.597656 L 330.890625 245.628906 L 329.207031 245.628906 L 298.792969 257.796875 L 298.792969 308.011719 L 300.476562 308.011719 L 331.019531 295.84375 L 331.019531 282.257812 C 326.617188 282.125 323.125 278.632812 323.125 274.363281 Z M 323.125 274.363281 " fill-opacity="1" fill-rule="nonzero"/></g><path fill="#e8f5ff" d="M 260.226562 245.5 L 260.226562 266.726562 C 260.484375 266.726562 260.742188 266.726562 261.003906 266.726562 C 265.273438 266.726562 268.769531 270.21875 268.769531 274.492188 C 268.769531 278.761719 265.273438 282.257812 261.003906 282.257812 C 260.742188 282.257812 260.484375 282.257812 260.226562 282.257812 L 260.226562 295.714844 L 290.769531 307.882812 L 292.453125 307.882812 L 292.453125 257.667969 L 261.910156 245.5 Z M 260.226562 245.5 " fill-opacity="1" fill-rule="nonzero"/><g clip-path="url(#2ee43f3325)"><path fill="#e8f5ff" d="M 293.617188 257.148438 L 297.5 257.148438 L 297.5 308.269531 L 293.617188 308.269531 Z M 293.617188 257.148438 " fill-opacity="1" fill-rule="nonzero"/></g><g clip-path="url(#9e6763e8ec)"><path fill="#e8f5ff" d="M 331.019531 268.019531 C 327.523438 268.019531 324.546875 270.867188 324.546875 274.492188 C 324.546875 277.984375 327.394531 280.960938 331.019531 280.960938 C 334.640625 280.960938 337.488281 278.113281 337.488281 274.492188 C 337.359375 270.867188 334.511719 268.019531 331.019531 268.019531 Z M 331.019531 268.019531 " fill-opacity="1" fill-rule="nonzero"/></g><g clip-path="url(#8227fbe641)"><path fill="#e8f5ff" d="M 254.660156 274.363281 C 254.660156 277.855469 257.507812 280.832031 261.132812 280.832031 C 264.753906 280.832031 267.601562 277.984375 267.601562 274.363281 C 267.601562 270.867188 264.753906 267.890625 261.132812 267.890625 C 257.507812 267.890625 254.660156 270.867188 254.660156 274.363281 Z M 254.660156 274.363281 " fill-opacity="1" fill-rule="nonzero"/></g></svg>