<svg xmlns="http://www.w3.org/2000/svg" xmlns:xlink="http://www.w3.org/1999/xlink" width="500" zoomAndPan="magnify" viewBox="0 0 375 374.999991" height="500" preserveAspectRatio="xMidYMid meet" version="1.0"><defs><clipPath id="defbff36e1"><path d="M 56 71.058594 L 319 71.058594 L 319 304 L 56 304 Z M 56 71.058594 " clip-rule="nonzero"/></clipPath></defs><rect x="-37.5" width="450" fill="#ffffff" y="-37.499999" height="449.999989" fill-opacity="1"/><rect x="-37.5" width="450" fill="#032759" y="-37.499999" height="449.999989" fill-opacity="1"/><g clip-path="url(#defbff36e1)"><path fill="#e8f5ff" d="M 318.191406 297.664062 C 292.757812 251.101562 286.351562 148.78125 286.109375 144.738281 L 286.109375 102.347656 C 286.109375 100.007812 284.214844 98.113281 281.875 98.113281 L 247.839844 98.113281 C 246.789062 82.425781 239.949219 71.0625 231.101562 71.0625 C 222.257812 71.0625 215.414062 82.425781 214.367188 98.113281 L 187.832031 98.113281 C 186.78125 82.425781 179.941406 71.0625 171.09375 71.0625 C 162.25 71.0625 155.410156 82.425781 154.359375 98.113281 L 132.441406 98.113281 C 131.390625 82.425781 124.546875 71.0625 115.703125 71.0625 C 106.859375 71.0625 100.015625 82.425781 98.964844 98.113281 L 60.3125 98.113281 C 57.972656 98.113281 56.078125 100.007812 56.078125 102.347656 L 56.078125 281.34375 C 56.078125 283.683594 57.972656 285.582031 60.3125 285.582031 L 81.980469 285.582031 C 84.21875 291.511719 86.625 297.019531 89.195312 301.722656 C 89.9375 303.082031 91.363281 303.929688 92.914062 303.929688 L 314.472656 303.929688 C 315.96875 303.929688 317.355469 303.140625 318.117188 301.855469 C 318.878906 300.566406 318.910156 298.976562 318.191406 297.664062 Z M 231.101562 79.535156 C 234.09375 79.535156 238.445312 86.792969 239.34375 98.113281 L 222.859375 98.113281 C 223.757812 86.792969 228.113281 79.535156 231.101562 79.535156 Z M 171.09375 79.535156 C 174.082031 79.535156 178.4375 86.792969 179.335938 98.113281 L 162.851562 98.113281 C 163.75 86.792969 168.105469 79.535156 171.09375 79.535156 Z M 115.703125 79.535156 C 118.691406 79.535156 123.046875 86.792969 123.941406 98.113281 L 107.460938 98.113281 C 108.359375 86.792969 112.710938 79.535156 115.703125 79.535156 Z M 123.941406 106.585938 C 123.316406 114.492188 121.003906 120.414062 118.644531 123.265625 C 117.753906 122.835938 116.757812 122.585938 115.703125 122.585938 C 111.949219 122.585938 108.890625 125.644531 108.890625 129.398438 C 108.890625 133.152344 111.949219 136.210938 115.703125 136.210938 C 118.761719 136.210938 121.363281 134.171875 122.214844 131.382812 C 127.753906 127.332031 131.667969 118.128906 132.441406 106.585938 L 179.335938 106.585938 C 178.707031 114.492188 176.398438 120.414062 174.039062 123.265625 C 173.144531 122.835938 172.148438 122.585938 171.09375 122.585938 C 167.34375 122.585938 164.28125 125.648438 164.28125 129.398438 C 164.28125 133.152344 167.34375 136.210938 171.09375 136.210938 C 174.15625 136.210938 176.757812 134.171875 177.609375 131.382812 C 183.148438 127.332031 187.058594 118.132812 187.832031 106.585938 L 239.34375 106.585938 C 238.71875 114.492188 236.40625 120.414062 234.046875 123.269531 C 233.15625 122.835938 232.15625 122.585938 231.101562 122.585938 C 227.351562 122.585938 224.289062 125.648438 224.289062 129.398438 C 224.289062 133.152344 227.351562 136.210938 231.101562 136.210938 C 234.164062 136.210938 236.765625 134.175781 237.617188 131.386719 C 243.15625 127.332031 247.066406 118.132812 247.839844 106.585938 L 277.640625 106.585938 L 277.640625 140.628906 L 64.550781 140.628906 L 64.550781 106.585938 Z M 64.550781 277.109375 L 64.550781 218.988281 C 64.945312 221.105469 65.355469 223.226562 65.773438 225.339844 C 68.378906 238.453125 72.910156 258.847656 78.980469 277.109375 Z M 95.46875 295.457031 C 78.9375 262.871094 65.578125 187.117188 64.609375 149.097656 L 277.902344 149.097656 C 279.230469 168.300781 285.992188 249.707031 307.578125 295.457031 Z M 270.78125 238.296875 L 263.804688 234.269531 L 263.804688 200.398438 L 265.441406 199.964844 C 267.296875 199.472656 268.589844 197.792969 268.589844 195.871094 C 268.589844 193.949219 267.296875 192.269531 265.441406 191.777344 L 186.328125 170.761719 C 185.613281 170.574219 184.863281 170.574219 184.152344 170.761719 L 105.039062 191.777344 C 103.183594 192.269531 101.890625 193.949219 101.890625 195.871094 C 101.890625 197.792969 103.183594 199.472656 105.039062 199.964844 L 126.90625 205.773438 L 126.90625 245.730469 C 126.90625 247.777344 128.371094 249.53125 130.382812 249.898438 C 139.589844 251.582031 147.183594 253.050781 153.28125 254.230469 C 169.113281 257.289062 177.175781 258.820312 185.242188 258.820312 C 193.304688 258.820312 201.367188 257.289062 217.199219 254.230469 C 223.300781 253.050781 230.890625 251.582031 240.097656 249.898438 C 242.113281 249.53125 243.574219 247.777344 243.574219 245.730469 L 243.574219 205.773438 L 255.332031 202.648438 L 255.332031 234.265625 L 248.355469 238.292969 C 247.046875 239.050781 246.238281 240.449219 246.238281 241.960938 L 246.238281 269.699219 C 246.238281 271.304688 247.144531 272.773438 248.582031 273.488281 C 250.019531 274.207031 251.738281 274.050781 253.019531 273.085938 L 259.566406 268.160156 L 266.117188 273.085938 C 266.863281 273.648438 267.761719 273.9375 268.664062 273.9375 C 269.308594 273.9375 269.957031 273.789062 270.554688 273.488281 C 271.992188 272.773438 272.898438 271.304688 272.898438 269.699219 L 272.898438 241.960938 C 272.898438 240.449219 272.089844 239.050781 270.78125 238.296875 Z M 235.101562 242.203125 C 227.398438 243.628906 220.925781 244.878906 215.589844 245.914062 C 185.238281 251.777344 185.238281 251.777344 154.890625 245.914062 C 149.554688 244.878906 143.082031 243.628906 135.378906 242.203125 L 135.378906 208.023438 L 184.152344 220.980469 C 184.507812 221.074219 184.875 221.121094 185.238281 221.121094 C 185.605469 221.121094 185.972656 221.074219 186.328125 220.980469 L 235.101562 208.023438 Z M 185.242188 212.503906 L 122.625 195.871094 L 185.242188 179.238281 L 247.855469 195.871094 Z M 264.425781 261.214844 L 262.113281 259.476562 C 261.359375 258.910156 260.464844 258.625 259.566406 258.625 C 258.671875 258.625 257.777344 258.910156 257.019531 259.476562 L 254.710938 261.214844 L 254.710938 244.410156 L 259.566406 241.605469 L 264.425781 244.410156 Z M 264.425781 261.214844 " fill-opacity="1" fill-rule="nonzero"/></g></svg>