<svg xmlns="http://www.w3.org/2000/svg" xmlns:xlink="http://www.w3.org/1999/xlink" width="500" zoomAndPan="magnify" viewBox="0 0 375 374.999991" height="500" preserveAspectRatio="xMidYMid meet" version="1.0"><defs><clipPath id="71b009d07d"><path d="M 47 47.144531 L 337 47.144531 L 337 327.644531 L 47 327.644531 Z M 47 47.144531 " clip-rule="nonzero"/></clipPath></defs><rect x="-37.5" width="450" fill="#ffffff" y="-37.499999" height="449.999989" fill-opacity="1"/><rect x="-37.5" width="450" fill="#032759" y="-37.499999" height="449.999989" fill-opacity="1"/><g clip-path="url(#71b009d07d)"><path fill="#e8f5ff" d="M 334.804688 147 C 335.75 146.484375 336.285156 145.445312 336.175781 144.375 C 336.058594 143.304688 335.308594 142.402344 334.269531 142.09375 L 329.234375 140.582031 L 329.234375 98.625 L 334.804688 95.5625 C 335.738281 95.046875 336.285156 94.019531 336.175781 92.957031 C 336.070312 91.898438 335.351562 90.984375 334.332031 90.664062 L 201.542969 47.808594 C 200.933594 47.605469 200.277344 47.625 199.6875 47.882812 L 48.867188 110.65625 C 48.640625 110.753906 48.511719 110.957031 48.320312 111.097656 C 48.167969 111.214844 48.039062 111.289062 47.914062 111.4375 C 47.503906 111.910156 47.214844 112.476562 47.214844 113.132812 L 47.214844 267.449219 C 47.214844 268.53125 47.871094 269.503906 48.867188 269.921875 L 189.746094 328.636719 C 190.066406 328.777344 190.421875 328.839844 190.773438 328.839844 C 191.226562 328.839844 191.664062 328.734375 192.070312 328.507812 L 334.804688 249.875 C 335.738281 249.363281 336.273438 248.34375 336.175781 247.285156 C 336.070312 246.222656 335.363281 245.3125 334.34375 244.992188 L 329.234375 243.308594 L 329.234375 201.503906 L 334.804688 198.4375 C 335.75 197.921875 336.292969 196.882812 336.175781 195.8125 C 336.058594 194.730469 335.308594 193.839844 334.269531 193.53125 L 329.234375 192.03125 L 329.234375 150.074219 Z M 323.886719 113.570312 L 208.3125 178.125 C 207.027344 178.84375 206.566406 180.480469 207.273438 181.765625 C 207.765625 182.644531 208.679688 183.136719 209.621094 183.136719 C 210.058594 183.136719 210.511719 183.03125 210.929688 182.796875 L 323.886719 119.710938 L 323.886719 128.925781 L 208.3125 193.464844 C 207.027344 194.183594 206.566406 195.824219 207.273438 197.109375 C 207.765625 197.988281 208.679688 198.480469 209.621094 198.480469 C 210.058594 198.480469 210.511719 198.375 210.929688 198.136719 L 323.886719 135.054688 L 323.886719 146.890625 L 193.453125 218.753906 L 193.453125 173.429688 L 323.886719 101.570312 Z M 188.097656 219.265625 L 52.574219 162.78125 L 52.574219 117.148438 L 188.097656 173.636719 Z M 52.574219 168.589844 L 188.097656 225.085938 L 188.097656 270.714844 L 52.574219 214.21875 Z M 200.835938 53.207031 L 326.792969 93.855469 L 190.613281 168.878906 L 56.859375 113.132812 Z M 52.574219 220.027344 L 188.097656 276.511719 L 188.097656 322.144531 L 52.574219 265.667969 Z M 323.886719 216.910156 L 208.3125 281.460938 C 207.027344 282.179688 206.566406 283.820312 207.273438 285.105469 C 207.765625 285.984375 208.679688 286.476562 209.621094 286.476562 C 210.058594 286.476562 210.511719 286.371094 210.929688 286.132812 L 323.886719 223.046875 L 323.886719 232.261719 L 208.3125 296.816406 C 207.027344 297.535156 206.566406 299.171875 207.273438 300.457031 C 207.765625 301.335938 208.679688 301.828125 209.621094 301.828125 C 210.058594 301.828125 210.511719 301.722656 210.929688 301.488281 L 323.886719 238.402344 L 323.886719 249.792969 L 193.453125 321.640625 L 193.453125 276.320312 L 323.886719 204.46875 Z M 323.886719 163.167969 L 208.3125 227.71875 C 207.027344 228.4375 206.566406 230.078125 207.273438 231.363281 C 207.765625 232.242188 208.679688 232.734375 209.621094 232.734375 C 210.058594 232.734375 210.511719 232.628906 210.929688 232.390625 L 323.886719 169.304688 L 323.886719 178.519531 L 208.3125 243.074219 C 207.027344 243.792969 206.566406 245.429688 207.273438 246.714844 C 207.765625 247.59375 208.679688 248.085938 209.621094 248.085938 C 210.058594 248.085938 210.511719 247.980469 210.929688 247.746094 L 323.886719 184.660156 L 323.886719 198.339844 L 193.453125 270.191406 L 193.453125 224.871094 L 323.886719 153.011719 Z M 323.886719 163.167969 " fill-opacity="1" fill-rule="nonzero"/></g><path fill="#e8f5ff" d="M 168.898438 88.199219 L 244.933594 117.644531 C 245.234375 117.769531 245.578125 117.824219 245.898438 117.824219 C 246.304688 117.824219 246.714844 117.726562 247.078125 117.546875 L 283.699219 99.492188 C 284.671875 99.019531 285.261719 98.003906 285.1875 96.921875 C 285.125 95.839844 284.417969 94.90625 283.386719 94.554688 L 205.324219 67.714844 C 204.671875 67.488281 203.984375 67.523438 203.363281 67.800781 L 168.769531 83.25 C 167.773438 83.691406 167.148438 84.675781 167.183594 85.757812 C 167.214844 86.839844 167.878906 87.8125 168.898438 88.199219 Z M 204.574219 73.125 L 275.554688 97.519531 L 245.769531 112.210938 L 176.8125 85.523438 Z M 204.574219 73.125 " fill-opacity="1" fill-rule="nonzero"/><path fill="#e8f5ff" d="M 211.089844 136.273438 C 211.433594 136.425781 211.785156 136.5 212.148438 136.5 C 213.1875 136.5 214.175781 135.890625 214.601562 134.882812 C 215.191406 133.519531 214.558594 131.945312 213.199219 131.367188 L 141.734375 100.660156 C 140.386719 100.0625 138.789062 100.691406 138.222656 102.0625 C 137.632812 103.425781 138.265625 105 139.625 105.578125 Z M 211.089844 136.273438 " fill-opacity="1" fill-rule="nonzero"/><path fill="#e8f5ff" d="M 195.90625 148.53125 C 196.945312 148.53125 197.933594 147.921875 198.359375 146.914062 C 198.949219 145.554688 198.316406 143.976562 196.957031 143.398438 L 125.492188 112.691406 C 124.144531 112.082031 122.570312 112.726562 121.988281 114.085938 C 121.402344 115.445312 122.03125 117.019531 123.394531 117.601562 L 194.855469 148.304688 C 195.199219 148.457031 195.554688 148.53125 195.90625 148.53125 Z M 195.90625 148.53125 " fill-opacity="1" fill-rule="nonzero"/><path fill="#e8f5ff" d="M 64.691406 140.765625 L 168.855469 182.957031 C 169.175781 183.085938 169.519531 183.148438 169.859375 183.148438 C 170.921875 183.148438 171.917969 182.515625 172.335938 181.476562 C 172.894531 180.105469 172.230469 178.550781 170.855469 177.984375 L 66.703125 135.792969 C 65.34375 135.246094 63.78125 135.898438 63.222656 137.269531 C 62.664062 138.640625 63.320312 140.195312 64.691406 140.765625 Z M 64.691406 140.765625 " fill-opacity="1" fill-rule="nonzero"/><path fill="#e8f5ff" d="M 170.867188 192.855469 L 66.703125 150.675781 C 65.34375 150.117188 63.78125 150.78125 63.222656 152.152344 C 62.664062 153.523438 63.328125 155.078125 64.703125 155.644531 L 168.863281 197.839844 C 169.1875 197.964844 169.527344 198.03125 169.871094 198.03125 C 170.933594 198.03125 171.929688 197.398438 172.347656 196.359375 C 172.894531 194.976562 172.238281 193.425781 170.867188 192.855469 Z M 170.867188 192.855469 " fill-opacity="1" fill-rule="nonzero"/><path fill="#e8f5ff" d="M 64.691406 194.421875 L 168.855469 236.613281 C 169.175781 236.742188 169.519531 236.804688 169.859375 236.804688 C 170.921875 236.804688 171.917969 236.171875 172.335938 235.132812 C 172.894531 233.761719 172.230469 232.210938 170.855469 231.640625 L 66.703125 189.449219 C 65.34375 188.902344 63.78125 189.554688 63.222656 190.925781 C 62.664062 192.308594 63.320312 193.863281 64.691406 194.421875 Z M 64.691406 194.421875 " fill-opacity="1" fill-rule="nonzero"/><path fill="#e8f5ff" d="M 170.867188 246.523438 L 66.703125 204.339844 C 65.34375 203.804688 63.78125 204.449219 63.222656 205.820312 C 62.664062 207.191406 63.328125 208.746094 64.703125 209.3125 L 168.863281 251.503906 C 169.1875 251.632812 169.527344 251.699219 169.871094 251.699219 C 170.933594 251.699219 171.929688 251.066406 172.347656 250.027344 C 172.894531 248.644531 172.238281 247.082031 170.867188 246.523438 Z M 170.867188 246.523438 " fill-opacity="1" fill-rule="nonzero"/><path fill="#e8f5ff" d="M 64.691406 246.417969 L 168.855469 288.609375 C 169.175781 288.738281 169.519531 288.800781 169.859375 288.800781 C 170.921875 288.800781 171.917969 288.167969 172.335938 287.128906 C 172.894531 285.757812 172.230469 284.203125 170.855469 283.636719 L 66.703125 241.445312 C 65.34375 240.886719 63.78125 241.550781 63.222656 242.921875 C 62.664062 244.292969 63.320312 245.859375 64.691406 246.417969 Z M 64.691406 246.417969 " fill-opacity="1" fill-rule="nonzero"/><path fill="#e8f5ff" d="M 170.867188 298.519531 L 66.703125 256.328125 C 65.34375 255.78125 63.78125 256.433594 63.222656 257.804688 C 62.664062 259.175781 63.328125 260.730469 64.703125 261.296875 L 168.863281 303.492188 C 169.1875 303.617188 169.527344 303.683594 169.871094 303.683594 C 170.933594 303.683594 171.929688 303.050781 172.347656 302.011719 C 172.894531 300.628906 172.238281 299.074219 170.867188 298.519531 Z M 170.867188 298.519531 " fill-opacity="1" fill-rule="nonzero"/></svg>