<svg xmlns="http://www.w3.org/2000/svg" xmlns:xlink="http://www.w3.org/1999/xlink" width="500" zoomAndPan="magnify" viewBox="0 0 375 374.999991" height="500" preserveAspectRatio="xMidYMid meet" version="1.0"><defs><clipPath id="986fca2933"><path d="M 194 67.925781 L 307.175781 67.925781 L 307.175781 181 L 194 181 Z M 194 67.925781 " clip-rule="nonzero"/></clipPath><clipPath id="daf7c62bc5"><path d="M 67.925781 194 L 307.175781 194 L 307.175781 307.175781 L 67.925781 307.175781 Z M 67.925781 194 " clip-rule="nonzero"/></clipPath><clipPath id="62ae3642fc"><path d="M 67.925781 67.925781 L 181 67.925781 L 181 181 L 67.925781 181 Z M 67.925781 67.925781 " clip-rule="nonzero"/></clipPath></defs><rect x="-37.5" width="450" fill="#ffffff" y="-37.499999" height="449.999989" fill-opacity="1"/><rect x="-37.5" width="450" fill="#032759" y="-37.499999" height="449.999989" fill-opacity="1"/><g clip-path="url(#986fca2933)"><path fill="#e8f5ff" d="M 307.070312 170.058594 L 307.070312 77.890625 C 307.070312 72.386719 302.605469 67.925781 297.105469 67.925781 L 204.933594 67.925781 C 199.433594 67.925781 194.96875 72.386719 194.96875 77.890625 L 194.96875 170.058594 C 194.96875 175.558594 199.433594 180.023438 204.933594 180.023438 L 297.105469 180.023438 C 302.605469 180.023438 307.070312 175.558594 307.070312 170.058594 Z M 307.070312 170.058594 " fill-opacity="1" fill-rule="nonzero"/></g><g clip-path="url(#daf7c62bc5)"><path fill="#e8f5ff" d="M 194.96875 194.96875 L 77.890625 194.96875 C 72.386719 194.96875 67.925781 199.433594 67.925781 204.933594 L 67.925781 297.105469 C 67.925781 302.605469 72.386719 307.070312 77.890625 307.070312 L 297.105469 307.070312 C 302.605469 307.070312 307.070312 302.605469 307.070312 297.105469 L 307.070312 204.933594 C 307.070312 199.433594 302.605469 194.96875 297.105469 194.96875 Z M 194.96875 194.96875 " fill-opacity="1" fill-rule="nonzero"/></g><g clip-path="url(#62ae3642fc)"><path fill="#e8f5ff" d="M 180.023438 170.058594 L 180.023438 77.890625 C 180.023438 72.386719 175.558594 67.925781 170.058594 67.925781 L 77.890625 67.925781 C 72.386719 67.925781 67.925781 72.386719 67.925781 77.890625 L 67.925781 170.058594 C 67.925781 175.558594 72.386719 180.023438 77.890625 180.023438 L 170.058594 180.023438 C 175.558594 180.023438 180.023438 175.558594 180.023438 170.058594 Z M 180.023438 170.058594 " fill-opacity="1" fill-rule="nonzero"/></g></svg>