<svg xmlns="http://www.w3.org/2000/svg" xmlns:xlink="http://www.w3.org/1999/xlink" width="500" zoomAndPan="magnify" viewBox="0 0 375 374.999991" height="500" preserveAspectRatio="xMidYMid meet" version="1.0"><defs><clipPath id="a3042574bb"><path d="M 211 149 L 304.972656 149 L 304.972656 165 L 211 165 Z M 211 149 " clip-rule="nonzero"/></clipPath><clipPath id="44b21a1efd"><path d="M 237 204 L 304.972656 204 L 304.972656 220 L 237 220 Z M 237 204 " clip-rule="nonzero"/></clipPath><clipPath id="a74350b5b7"><path d="M 256 259 L 304.972656 259 L 304.972656 275 L 256 275 Z M 256 259 " clip-rule="nonzero"/></clipPath><clipPath id="5eabadc032"><path d="M 70.222656 187 L 250 187 L 250 308 L 70.222656 308 Z M 70.222656 187 " clip-rule="nonzero"/></clipPath></defs><rect x="-37.5" width="450" fill="#ffffff" y="-37.499999" height="449.999989" fill-opacity="1"/><rect x="-37.5" width="450" fill="#032759" y="-37.499999" height="449.999989" fill-opacity="1"/><g clip-path="url(#a3042574bb)"><path fill="#e8f5ff" d="M 296.71875 164.371094 L 219 164.371094 C 214.859375 164.371094 211.507812 161.019531 211.507812 156.878906 C 211.507812 152.742188 214.859375 149.386719 219 149.386719 L 296.71875 149.386719 C 300.859375 149.386719 304.210938 152.742188 304.210938 156.878906 C 304.210938 161.019531 300.859375 164.371094 296.71875 164.371094 Z M 296.71875 164.371094 " fill-opacity="1" fill-rule="nonzero"/></g><g clip-path="url(#44b21a1efd)"><path fill="#e8f5ff" d="M 296.71875 219.667969 L 245.433594 219.667969 C 241.292969 219.667969 237.941406 216.3125 237.941406 212.175781 C 237.941406 208.035156 241.292969 204.679688 245.433594 204.679688 L 296.71875 204.679688 C 300.859375 204.679688 304.210938 208.035156 304.210938 212.175781 C 304.210938 216.3125 300.859375 219.667969 296.71875 219.667969 Z M 296.71875 219.667969 " fill-opacity="1" fill-rule="nonzero"/></g><g clip-path="url(#a74350b5b7)"><path fill="#e8f5ff" d="M 296.71875 274.960938 L 264.226562 274.960938 C 260.082031 274.960938 256.730469 271.605469 256.730469 267.46875 C 256.730469 263.332031 260.082031 259.976562 264.226562 259.976562 L 296.71875 259.976562 C 300.859375 259.976562 304.210938 263.332031 304.210938 267.46875 C 304.210938 271.605469 300.859375 274.960938 296.71875 274.960938 Z M 296.71875 274.960938 " fill-opacity="1" fill-rule="nonzero"/></g><path fill="#e8f5ff" d="M 159.957031 172.511719 C 131.039062 172.511719 107.503906 148.980469 107.503906 120.054688 C 107.503906 91.128906 131.039062 67.601562 159.957031 67.601562 C 188.878906 67.601562 212.414062 91.128906 212.414062 120.054688 C 212.414062 148.980469 188.878906 172.511719 159.957031 172.511719 Z M 159.957031 82.585938 C 139.300781 82.585938 122.492188 99.394531 122.492188 120.054688 C 122.492188 140.714844 139.300781 157.523438 159.957031 157.523438 C 180.617188 157.523438 197.425781 140.714844 197.425781 120.054688 C 197.425781 99.394531 180.617188 82.585938 159.957031 82.585938 Z M 159.957031 82.585938 " fill-opacity="1" fill-rule="nonzero"/><g clip-path="url(#5eabadc032)"><path fill="#e8f5ff" d="M 219.476562 307.394531 L 100.441406 307.394531 C 83.675781 307.394531 70.035156 293.753906 70.035156 276.988281 C 70.035156 227.40625 110.371094 187.066406 159.957031 187.066406 C 209.546875 187.066406 249.882812 227.40625 249.882812 276.988281 C 249.882812 293.753906 236.242188 307.394531 219.476562 307.394531 Z M 159.957031 202.054688 C 118.640625 202.054688 85.023438 235.667969 85.023438 276.988281 C 85.023438 285.492188 91.9375 292.410156 100.441406 292.410156 L 219.476562 292.410156 C 227.980469 292.410156 234.894531 285.492188 234.894531 276.988281 C 234.894531 235.667969 201.277344 202.054688 159.957031 202.054688 Z M 159.957031 202.054688 " fill-opacity="1" fill-rule="nonzero"/></g></svg>